<?xml version="1.0" encoding="utf-8"?>
<!-- Generator: Adobe Illustrator 25.1.0, SVG Export Plug-In . SVG Version: 6.00 Build 0)  -->
<svg version="1.1" id="Capa_1" xmlns="http://www.w3.org/2000/svg" xmlns:xlink="http://www.w3.org/1999/xlink" x="0px" y="0px"
	 viewBox="0 0 305.28 396" style="enable-background:new 0 0 305.28 396;" xml:space="preserve">
<style type="text/css">
	.st0{fill:#000D0D;}
</style>
<path class="st0" d="M51.78,303.21c-14.36-6.16-23.17-22.47-20.39-39.29c1.17-7.1,3.79-14.14,6.81-20.73
	c21-45.83,42.28-91.53,63.48-137.26c0.97-2.08,2.04-4.12,3.25-6.55c10.29,4.95,16.37,12.75,19.46,23.1
	c3.21,10.75,1.64,21.03-2.98,31.05c-4.51,9.77-8.94,19.57-13.78,30.16c45.19,0,89.53,0,134.52,0c0.29,13.17-4.25,23.44-13.82,31.53
	c-5.87,4.96-12.72,6.85-20.35,6.82c-37.47-0.11-74.95,0.04-112.42-0.28c-4.79-0.04-6.63,1.78-8.39,5.63
	c-10.96,24.05-22.11,48.02-33.22,72.01C53.33,300.74,52.49,301.97,51.78,303.21z"/>
<path class="st0" d="M154.37,148.47c0-10.44-0.27-20.7,0.12-30.94c0.18-4.68,3.84-6.89,8.33-6.9c33.61-0.07,67.22-0.04,100.83-0.04
	c3.3,0,6.6,0,10.28,0c1.84,11.72-1.76,21.23-9.87,29.05c-6.23,6.01-14.07,9.07-22.6,9.14c-28.11,0.22-56.23,0.04-84.35,0
	C156.32,148.77,155.53,148.6,154.37,148.47z"/>
<path class="st0" d="M273.85,294.67c-39.88,0-79.41,0-119.33,0c0-12.33,0-24.39,0-37.29c5.86,0,11.6-0.02,17.33,0
	c22.95,0.07,45.92-0.33,68.85,0.38C259.62,258.36,275.74,276.78,273.85,294.67z"/>
</svg>
